<?xml version="1.0" encoding="utf-8"?>
<!-- Generator: Adobe Illustrator 25.1.0, SVG Export Plug-In . SVG Version: 6.00 Build 0)  -->
<svg version="1.1" id="Layer_1" xmlns="http://www.w3.org/2000/svg" xmlns:xlink="http://www.w3.org/1999/xlink" x="0px" y="0px"
	 viewBox="0 0 287.91 96.94" style="enable-background:new 0 0 287.91 96.94;" xml:space="preserve">
<style type="text/css">
	.st0{fill:#AEE5EC;}
	.st1{fill:#006A6B;}
	.st2{fill:#5ACCD1;}
	.st3{fill:#008385;}
	.st4{fill:#223663;}
</style>
<g>
	<g>
		<path class="st0" d="M86.12,38.92c-3.4,0.08-6.2,2.44-6.98,5.58l-5.28,0.13c-0.75-6.01-3.4-11.42-7.35-15.62l5.23-5.11
			c2.83,1.89,6.69,1.62,9.23-0.85c2.92-2.84,2.98-7.51,0.14-10.43c-2.84-2.92-7.51-2.98-10.43-0.14c-2.43,2.37-2.88,6-1.31,8.84
			l-5.41,5.29c-4.5-3.72-10.18-6.05-16.4-6.35v-5.68c3.34-0.71,5.84-3.67,5.84-7.21c0-4.07-3.3-7.38-7.38-7.38
			c-4.07,0-7.38,3.3-7.38,7.38c0,3.39,2.29,6.24,5.41,7.1v5.84c-6.49,0.5-12.36,3.21-16.85,7.39l-6.48-6.78
			c1.92-2.82,1.68-6.7-0.78-9.26c-2.82-2.94-7.49-3.03-10.43-0.21S6.48,18.96,9.3,21.9c2.35,2.44,5.97,2.91,8.81,1.38l6.68,6.98
			c-3.37,4.04-5.61,9.04-6.27,14.53l-3.8-0.47c-0.29-3.4-2.92-6.25-6.44-6.68c-4.04-0.5-7.73,2.37-8.23,6.41
			c-0.5,4.04,2.37,7.73,6.41,8.23c3.37,0.42,6.47-1.51,7.71-4.49l4.15,0.51c0.04,6.55,2.34,12.56,6.16,17.3l-6.29,5.94
			c-2.79-1.94-6.65-1.75-9.23,0.67c-2.98,2.78-3.14,7.44-0.36,10.42c2.78,2.98,7.44,3.14,10.42,0.36c2.49-2.32,3-5.95,1.49-8.83
			l6.34-5.99c4.51,4.35,10.49,7.19,17.12,7.72l-0.05,6.45c-3.34,0.68-5.87,3.62-5.9,7.16c-0.03,4.07,3.24,7.4,7.31,7.44
			c4.07,0.03,7.4-3.24,7.44-7.31c0.03-3.39-2.24-6.26-5.35-7.15l0.05-6.53c6.64-0.3,12.67-2.92,17.31-7.07l4.1,3.65
			c-1.69,2.96-1.14,6.8,1.51,9.16c3.04,2.71,7.71,2.43,10.41-0.61c2.71-3.04,2.43-7.71-0.61-10.41c-2.53-2.25-6.19-2.43-8.9-0.68
			l-4.05-3.6c4.25-4.89,6.83-11.26,6.83-18.24l5.03-0.13c0.79,3.31,3.8,5.74,7.34,5.66c4.07-0.09,7.3-3.46,7.21-7.54
			C93.56,42.06,90.19,38.83,86.12,38.92z"/>
		<g>
			<path class="st1" d="M7.92,40.53c2.44,0.3,4.17,2.53,3.87,4.97c-0.3,2.44-2.53,4.17-4.97,3.87c-2.44-0.3-4.17-2.53-3.87-4.97
				C3.26,41.96,5.48,40.22,7.92,40.53z"/>
		</g>
		<g>
			<path class="st1" d="M72.33,79.5c-1.84-1.63-2-4.45-0.37-6.29c1.63-1.84,4.45-2,6.29-0.37c1.84,1.63,2,4.45,0.37,6.29
				C76.99,80.97,74.17,81.13,72.33,79.5z"/>
		</g>
		<g>
			<path class="st1" d="M78.93,20.97c-1.76,1.72-4.58,1.68-6.3-0.09c-1.72-1.76-1.68-4.58,0.09-6.3c1.76-1.72,4.58-1.68,6.3,0.09
				S80.69,19.25,78.93,20.97z"/>
		</g>
		<g>
			
				<ellipse transform="matrix(0.9259 -0.3779 0.3779 0.9259 -14.7519 21.0227)" class="st2" cx="46.2" cy="48.11" rx="20.91" ry="20.91"/>
		</g>
		<g>
			
				<ellipse transform="matrix(0.9252 -0.3795 0.3795 0.9252 -14.7993 21.1296)" class="st3" cx="46.2" cy="48.11" rx="13.84" ry="13.84"/>
		</g>
		<g>
			<path class="st1" d="M53.26,48.11c0,3.9-3.16,7.06-7.06,7.06s-7.06-3.16-7.06-7.06s3.16-7.06,7.06-7.06S53.26,44.21,53.26,48.11z
				"/>
		</g>
		<g>
			<circle class="st1" cx="46.02" cy="7.38" r="4.45"/>
		</g>
		<g>
			<path class="st1" d="M86.38,50.75c-2.46,0.05-4.5-1.9-4.55-4.35c-0.05-2.46,1.9-4.5,4.35-4.55c2.46-0.05,4.5,1.9,4.55,4.35
				C90.79,48.65,88.84,50.69,86.38,50.75z"/>
		</g>
		<g>
			
				<ellipse transform="matrix(0.1537 -0.9881 0.9881 0.1537 -50.0815 120.6552)" class="st1" cx="45.4" cy="89.57" rx="4.45" ry="4.45"/>
		</g>
		<g>
			<path class="st1" d="M10.96,74.33c1.8-1.68,4.62-1.58,6.3,0.22c1.68,1.8,1.58,4.62-0.22,6.3c-1.8,1.68-4.62,1.58-6.3-0.22
				C9.07,78.83,9.16,76.01,10.96,74.33z"/>
		</g>
		<g>
			<path class="st1" d="M17.83,13.7c1.7,1.77,1.65,4.59-0.13,6.3c-1.77,1.7-4.59,1.65-6.3-0.13c-1.7-1.77-1.65-4.59,0.13-6.3
				C13.31,11.87,16.13,11.93,17.83,13.7z"/>
		</g>
	</g>
	<g>
		<g>
			<path class="st4" d="M116.22,58.96c-2.13,0-3.96-0.35-5.5-1.05c-1.54-0.7-2.73-1.73-3.58-3.09c-0.85-1.36-1.32-3.05-1.41-5.06
				c-0.02-0.93-0.03-1.92-0.03-2.99c0-1.06,0.01-2.08,0.03-3.06c0.09-1.97,0.57-3.65,1.43-5.03s2.06-2.42,3.6-3.13
				c1.54-0.7,3.36-1.05,5.47-1.05c1.49,0,2.88,0.19,4.15,0.56c1.27,0.37,2.38,0.92,3.33,1.63c0.95,0.71,1.69,1.57,2.23,2.58
				c0.53,1.01,0.81,2.15,0.83,3.41c0.02,0.2-0.04,0.37-0.19,0.51c-0.15,0.14-0.32,0.2-0.53,0.2h-4.59c-0.29,0-0.52-0.06-0.68-0.19
				c-0.16-0.12-0.29-0.36-0.41-0.7c-0.32-1.2-0.83-2.02-1.55-2.46c-0.71-0.44-1.59-0.66-2.63-0.66c-1.25,0-2.23,0.35-2.96,1.04
				c-0.73,0.69-1.12,1.84-1.19,3.45c-0.07,1.86-0.07,3.76,0,5.71c0.07,1.61,0.46,2.76,1.19,3.45c0.72,0.69,1.71,1.04,2.96,1.04
				c1.04,0,1.92-0.23,2.65-0.68c0.72-0.45,1.23-1.27,1.53-2.45c0.09-0.34,0.22-0.57,0.39-0.7c0.17-0.12,0.4-0.19,0.7-0.19h4.59
				c0.2,0,0.38,0.07,0.53,0.2c0.15,0.14,0.21,0.31,0.19,0.51c-0.02,1.27-0.3,2.41-0.83,3.42c-0.53,1.01-1.27,1.87-2.23,2.58
				c-0.95,0.71-2.06,1.26-3.33,1.63C119.09,58.77,117.71,58.96,116.22,58.96z"/>
			<path class="st4" d="M143.43,58.96c-2.08,0-3.9-0.34-5.44-1.02c-1.54-0.68-2.74-1.7-3.6-3.07s-1.34-3.09-1.43-5.15
				c-0.02-0.97-0.03-1.95-0.03-2.94c0-0.98,0.01-1.96,0.03-2.94c0.09-2.04,0.57-3.75,1.44-5.15c0.87-1.39,2.08-2.44,3.64-3.14
				c1.55-0.7,3.35-1.05,5.39-1.05c2.06,0,3.86,0.35,5.4,1.05c1.54,0.7,2.75,1.75,3.64,3.14c0.88,1.39,1.36,3.11,1.43,5.15
				c0.04,0.97,0.07,1.95,0.07,2.94c0,0.99-0.02,1.97-0.07,2.94c-0.07,2.06-0.54,3.78-1.41,5.15c-0.87,1.37-2.08,2.39-3.62,3.07
				C147.32,58.62,145.51,58.96,143.43,58.96z M143.43,54.07c1.2,0,2.18-0.36,2.94-1.09s1.16-1.88,1.21-3.47
				c0.04-1,0.07-1.94,0.07-2.82c0-0.88-0.02-1.8-0.07-2.75c-0.05-1.06-0.24-1.93-0.6-2.6c-0.35-0.67-0.83-1.16-1.44-1.48
				c-0.61-0.32-1.31-0.48-2.11-0.48c-0.77,0-1.46,0.16-2.07,0.48c-0.61,0.32-1.1,0.81-1.46,1.48c-0.36,0.67-0.57,1.53-0.61,2.6
				c-0.02,0.95-0.03,1.87-0.03,2.75c0,0.88,0.01,1.82,0.03,2.82c0.07,1.59,0.48,2.74,1.24,3.47
				C141.28,53.71,142.25,54.07,143.43,54.07z"/>
			<path class="st4" d="M167.38,58.62c-0.38,0-0.69-0.1-0.92-0.31s-0.39-0.44-0.48-0.71l-6.93-21.74c-0.05-0.11-0.07-0.21-0.07-0.31
				c0-0.18,0.07-0.34,0.22-0.49s0.32-0.22,0.53-0.22h4.21c0.36,0,0.65,0.1,0.85,0.31c0.2,0.2,0.33,0.4,0.37,0.58l4.82,15.7
				l4.79-15.7c0.07-0.18,0.2-0.37,0.39-0.58c0.19-0.2,0.47-0.31,0.83-0.31h4.25c0.18,0,0.35,0.07,0.49,0.22
				c0.15,0.15,0.22,0.31,0.22,0.49c0,0.09-0.02,0.19-0.07,0.31l-6.93,21.74c-0.07,0.27-0.22,0.51-0.44,0.71
				c-0.23,0.2-0.54,0.31-0.95,0.31H167.38z"/>
			<path class="st4" d="M188.38,58.62c-0.25,0-0.45-0.08-0.61-0.25c-0.16-0.17-0.24-0.37-0.24-0.59V35.69
				c0-0.25,0.08-0.45,0.24-0.61c0.16-0.16,0.36-0.24,0.61-0.24h4.55c0.25,0,0.46,0.08,0.63,0.24c0.17,0.16,0.25,0.36,0.25,0.61
				v22.08c0,0.23-0.08,0.42-0.25,0.59s-0.38,0.25-0.63,0.25H188.38z"/>
			<path class="st4" d="M202.78,58.62c-0.25,0-0.45-0.08-0.61-0.25c-0.16-0.17-0.24-0.37-0.24-0.59V35.69
				c0-0.25,0.08-0.45,0.24-0.61c0.16-0.16,0.36-0.24,0.61-0.24h8.83c2.22,0,4.11,0.36,5.67,1.07c1.56,0.71,2.76,1.76,3.6,3.13
				c0.84,1.37,1.29,3.06,1.36,5.08c0.02,1,0.03,1.87,0.03,2.62c0,0.75-0.01,1.61-0.03,2.58c-0.09,2.11-0.54,3.85-1.34,5.23
				c-0.8,1.38-1.97,2.41-3.5,3.08c-1.53,0.67-3.4,1-5.62,1H202.78z M208.05,53.73h3.57c0.97,0,1.78-0.15,2.43-0.46
				c0.65-0.31,1.13-0.79,1.46-1.44s0.5-1.52,0.53-2.58c0.05-0.66,0.07-1.25,0.08-1.77c0.01-0.52,0.01-1.04,0-1.56
				c-0.01-0.52-0.04-1.1-0.08-1.73c-0.04-1.54-0.45-2.67-1.21-3.38c-0.76-0.71-1.88-1.07-3.38-1.07h-3.4V53.73z"/>
			<path class="st4" d="M231.06,50.87c-0.25,0-0.45-0.08-0.61-0.24c-0.16-0.16-0.24-0.36-0.24-0.61v-3.19
				c0-0.25,0.08-0.45,0.24-0.61c0.16-0.16,0.36-0.24,0.61-0.24h10.63c0.25,0,0.46,0.08,0.63,0.24c0.17,0.16,0.25,0.36,0.25,0.61
				v3.19c0,0.25-0.08,0.45-0.25,0.61c-0.17,0.16-0.38,0.24-0.63,0.24H231.06z"/>
			<path class="st4" d="M256.38,58.62c-0.23,0-0.42-0.08-0.59-0.25s-0.25-0.37-0.25-0.59V41.6l-4.65,3.57
				c-0.2,0.16-0.41,0.22-0.63,0.17c-0.21-0.04-0.4-0.17-0.56-0.37l-2-2.62c-0.14-0.2-0.19-0.42-0.15-0.66
				c0.03-0.24,0.16-0.42,0.39-0.56l7.81-6.05c0.14-0.09,0.27-0.15,0.39-0.19c0.12-0.03,0.27-0.05,0.42-0.05h4.25
				c0.25,0,0.45,0.08,0.61,0.24c0.16,0.16,0.24,0.36,0.24,0.61v22.08c0,0.23-0.08,0.42-0.24,0.59s-0.36,0.25-0.61,0.25H256.38z"/>
			<path class="st4" d="M273.16,58.62c-0.2,0-0.37-0.07-0.51-0.22s-0.2-0.32-0.2-0.53c0-0.11,0.02-0.2,0.05-0.27
				c0.03-0.07,0.06-0.12,0.08-0.17l4.79-6.56c-0.32,0.07-0.65,0.1-0.99,0.1c-1.02-0.07-2.02-0.3-2.99-0.7s-1.85-0.94-2.63-1.63
				c-0.78-0.69-1.4-1.51-1.85-2.46c-0.45-0.95-0.68-2.02-0.68-3.19c0-1.09,0.2-2.13,0.61-3.14c0.41-1.01,1.02-1.91,1.83-2.72
				s1.83-1.44,3.04-1.92c1.21-0.48,2.62-0.71,4.23-0.71c1.63,0,3.06,0.21,4.3,0.63c1.23,0.42,2.27,1.01,3.11,1.77
				c0.84,0.76,1.47,1.64,1.9,2.65c0.43,1.01,0.65,2.08,0.65,3.21c0,1.04-0.19,2-0.56,2.89c-0.37,0.88-0.83,1.72-1.36,2.5
				s-1.08,1.57-1.65,2.36l-5.44,7.44c-0.09,0.11-0.23,0.25-0.41,0.42c-0.18,0.17-0.45,0.25-0.82,0.25H273.16z M278.02,46.49
				c0.68,0,1.29-0.14,1.83-0.42c0.54-0.28,0.97-0.68,1.29-1.21s0.48-1.16,0.48-1.9c0-0.75-0.16-1.39-0.48-1.92s-0.75-0.94-1.29-1.22
				c-0.54-0.28-1.16-0.42-1.83-0.42c-0.66,0-1.26,0.14-1.8,0.42c-0.54,0.28-0.97,0.69-1.29,1.22c-0.32,0.53-0.48,1.17-0.48,1.92
				c0,0.75,0.16,1.38,0.48,1.9c0.32,0.52,0.75,0.92,1.29,1.21C276.76,46.35,277.36,46.49,278.02,46.49z"/>
		</g>
	</g>
	<g>
		<g>
			<path class="st2" d="M112.73,76.69c-0.96,0-1.81-0.18-2.56-0.53c-0.74-0.35-1.33-0.86-1.77-1.53c-0.44-0.67-0.67-1.47-0.71-2.41
				c-0.01-0.21-0.02-0.47-0.02-0.79c0-0.32,0.01-0.58,0.02-0.79c0.04-0.95,0.27-1.76,0.7-2.43s1.02-1.18,1.77-1.53
				c0.75-0.35,1.6-0.53,2.56-0.53c0.9,0,1.67,0.13,2.31,0.38c0.64,0.25,1.16,0.57,1.56,0.95c0.4,0.38,0.7,0.76,0.9,1.16
				s0.31,0.74,0.32,1.04c0.01,0.13-0.03,0.24-0.14,0.34c-0.1,0.1-0.22,0.15-0.35,0.15h-2.48c-0.14,0-0.25-0.03-0.33-0.1
				c-0.08-0.06-0.15-0.16-0.21-0.29c-0.16-0.4-0.35-0.69-0.59-0.86c-0.24-0.17-0.55-0.25-0.93-0.25c-0.52,0-0.92,0.17-1.2,0.51
				c-0.28,0.34-0.43,0.86-0.46,1.56c-0.01,0.52-0.01,0.98,0,1.39c0.04,0.71,0.2,1.24,0.47,1.56s0.67,0.49,1.19,0.49
				c0.4,0,0.72-0.09,0.96-0.26c0.23-0.17,0.42-0.46,0.57-0.85c0.06-0.13,0.14-0.23,0.21-0.29c0.08-0.07,0.19-0.1,0.33-0.1h2.48
				c0.13,0,0.25,0.05,0.35,0.14c0.1,0.09,0.15,0.21,0.14,0.35c-0.01,0.21-0.08,0.46-0.19,0.76c-0.12,0.3-0.3,0.61-0.55,0.94
				s-0.57,0.62-0.97,0.9c-0.4,0.27-0.88,0.5-1.43,0.67S113.47,76.69,112.73,76.69z"/>
			<path class="st2" d="M126.33,76.69c-1.09,0-2.01-0.18-2.76-0.53c-0.75-0.35-1.32-0.85-1.72-1.51c-0.4-0.66-0.62-1.44-0.67-2.35
				c-0.01-0.26-0.02-0.56-0.02-0.89c0-0.33,0.01-0.62,0.02-0.87c0.05-0.92,0.29-1.71,0.7-2.36c0.42-0.65,1-1.15,1.75-1.5
				c0.75-0.35,1.65-0.53,2.7-0.53c1.07,0,1.97,0.18,2.72,0.53c0.75,0.35,1.33,0.85,1.75,1.5c0.42,0.65,0.65,1.44,0.7,2.36
				c0.01,0.25,0.02,0.54,0.02,0.87c0,0.33-0.01,0.63-0.02,0.89c-0.05,0.91-0.28,1.69-0.67,2.35c-0.4,0.66-0.97,1.16-1.72,1.51
				C128.36,76.52,127.43,76.69,126.33,76.69z M126.33,74.31c0.58,0,1.01-0.18,1.28-0.53c0.27-0.35,0.42-0.88,0.46-1.58
				c0.01-0.19,0.02-0.46,0.02-0.78c0-0.32-0.01-0.58-0.02-0.78c-0.04-0.69-0.19-1.21-0.46-1.57c-0.27-0.36-0.69-0.54-1.28-0.54
				c-0.56,0-0.98,0.18-1.26,0.54c-0.28,0.36-0.43,0.88-0.46,1.57c-0.01,0.2-0.02,0.46-0.02,0.78c0,0.33,0.01,0.59,0.02,0.78
				c0.03,0.7,0.18,1.23,0.46,1.58C125.35,74.14,125.77,74.31,126.33,74.31z"/>
			<path class="st2" d="M135.89,76.5c-0.14,0-0.26-0.05-0.35-0.15c-0.09-0.1-0.14-0.21-0.14-0.34v-9.17c0-0.13,0.05-0.24,0.14-0.34
				c0.09-0.1,0.21-0.15,0.35-0.15h2.24c0.14,0,0.26,0.05,0.36,0.15s0.15,0.21,0.15,0.34v0.78c0.34-0.4,0.75-0.71,1.24-0.94
				c0.49-0.22,1.04-0.33,1.65-0.33h0.86c0.14,0,0.26,0.05,0.35,0.14s0.14,0.21,0.14,0.35v2.01c0,0.13-0.05,0.24-0.14,0.34
				s-0.21,0.15-0.35,0.15h-1.89c-0.53,0-0.95,0.15-1.24,0.44c-0.29,0.29-0.44,0.71-0.44,1.24v4.99c0,0.13-0.05,0.24-0.15,0.34
				s-0.22,0.15-0.36,0.15H135.89z"/>
			<path class="st2" d="M150.93,76.69c-1.09,0-2.01-0.18-2.76-0.53c-0.75-0.35-1.32-0.85-1.72-1.51c-0.4-0.66-0.62-1.44-0.67-2.35
				c-0.01-0.26-0.02-0.56-0.02-0.89c0-0.33,0.01-0.62,0.02-0.87c0.05-0.92,0.29-1.71,0.7-2.36c0.42-0.65,1-1.15,1.75-1.5
				c0.75-0.35,1.65-0.53,2.7-0.53c1.07,0,1.97,0.18,2.72,0.53c0.75,0.35,1.33,0.85,1.75,1.5c0.42,0.65,0.65,1.44,0.7,2.36
				c0.01,0.25,0.02,0.54,0.02,0.87c0,0.33-0.01,0.63-0.02,0.89c-0.05,0.91-0.28,1.69-0.67,2.35c-0.4,0.66-0.97,1.16-1.72,1.51
				C152.96,76.52,152.03,76.69,150.93,76.69z M150.93,74.31c0.59,0,1.01-0.18,1.28-0.53c0.27-0.35,0.42-0.88,0.46-1.58
				c0.01-0.19,0.02-0.46,0.02-0.78c0-0.32-0.01-0.58-0.02-0.78c-0.04-0.69-0.19-1.21-0.46-1.57c-0.27-0.36-0.69-0.54-1.28-0.54
				c-0.56,0-0.98,0.18-1.26,0.54c-0.28,0.36-0.43,0.88-0.46,1.57c-0.01,0.2-0.02,0.46-0.02,0.78c0,0.33,0.01,0.59,0.02,0.78
				c0.03,0.7,0.18,1.23,0.46,1.58C149.95,74.14,150.37,74.31,150.93,74.31z"/>
			<path class="st2" d="M160.49,76.5c-0.14,0-0.26-0.05-0.35-0.15S160,76.14,160,76.01v-9.17c0-0.14,0.04-0.26,0.14-0.35
				s0.21-0.14,0.35-0.14h2.24c0.14,0,0.26,0.05,0.36,0.14c0.1,0.09,0.15,0.21,0.15,0.35v0.74c0.33-0.4,0.76-0.74,1.31-1.01
				c0.55-0.27,1.19-0.41,1.93-0.41c0.75,0,1.42,0.17,2,0.51c0.58,0.34,1.03,0.83,1.37,1.48s0.5,1.46,0.5,2.42v5.44
				c0,0.13-0.04,0.24-0.14,0.34c-0.09,0.1-0.21,0.15-0.35,0.15h-2.46c-0.13,0-0.24-0.05-0.34-0.15c-0.1-0.1-0.15-0.21-0.15-0.34
				v-5.33c0-0.61-0.15-1.08-0.44-1.41c-0.29-0.33-0.72-0.5-1.3-0.5c-0.53,0-0.96,0.17-1.28,0.5c-0.32,0.33-0.48,0.8-0.48,1.41v5.33
				c0,0.13-0.05,0.24-0.15,0.34c-0.1,0.1-0.21,0.15-0.34,0.15H160.49z"/>
			<path class="st2" d="M177.54,76.69c-0.7,0-1.33-0.13-1.88-0.4s-0.99-0.63-1.32-1.08c-0.33-0.46-0.49-0.97-0.49-1.54
				c0-0.92,0.38-1.66,1.13-2.2c0.75-0.54,1.76-0.91,3-1.1l2.44-0.37v-0.27c0-0.47-0.1-0.83-0.29-1.07
				c-0.19-0.25-0.55-0.37-1.07-0.37c-0.36,0-0.66,0.07-0.89,0.21c-0.23,0.14-0.41,0.34-0.54,0.58c-0.12,0.17-0.28,0.25-0.49,0.25
				h-2.18c-0.14,0-0.25-0.04-0.33-0.13c-0.08-0.08-0.11-0.18-0.1-0.3c0-0.23,0.09-0.5,0.26-0.81s0.45-0.61,0.81-0.91
				s0.83-0.55,1.4-0.74s1.27-0.29,2.09-0.29c0.83,0,1.55,0.1,2.15,0.29c0.6,0.2,1.09,0.47,1.46,0.82c0.38,0.35,0.65,0.76,0.83,1.24
				s0.26,1,0.26,1.57v5.93c0,0.13-0.05,0.24-0.15,0.34s-0.21,0.15-0.34,0.15h-2.26c-0.14,0-0.26-0.05-0.35-0.15
				c-0.09-0.1-0.14-0.21-0.14-0.34v-0.68c-0.17,0.25-0.4,0.48-0.68,0.68c-0.29,0.21-0.62,0.37-1,0.5S178.04,76.69,177.54,76.69z
				 M178.45,74.47c0.38,0,0.72-0.08,1.02-0.24c0.31-0.16,0.55-0.42,0.72-0.76s0.26-0.78,0.26-1.3v-0.27l-1.66,0.29
				c-0.61,0.1-1.06,0.26-1.34,0.48c-0.28,0.21-0.42,0.46-0.42,0.75c0,0.22,0.07,0.41,0.2,0.57s0.3,0.28,0.52,0.36
				C177.97,74.43,178.2,74.47,178.45,74.47z"/>
			<path class="st2" d="M191.27,76.5c-0.2,0-0.34-0.05-0.43-0.15s-0.17-0.21-0.23-0.34l-3.69-9.05c-0.03-0.05-0.04-0.11-0.04-0.18
				c0-0.12,0.04-0.22,0.13-0.3c0.08-0.08,0.19-0.13,0.32-0.13h2.2c0.17,0,0.3,0.05,0.39,0.14c0.09,0.09,0.15,0.18,0.17,0.27
				l2.21,5.99l2.22-5.99c0.03-0.09,0.08-0.18,0.18-0.27c0.09-0.09,0.22-0.14,0.39-0.14h2.2c0.12,0,0.22,0.04,0.31,0.13
				s0.14,0.19,0.14,0.3c0,0.07-0.01,0.12-0.04,0.18l-3.69,9.05c-0.05,0.13-0.13,0.24-0.22,0.34s-0.25,0.15-0.46,0.15H191.27z"/>
			<path class="st2" d="M201.68,64.89c-0.14,0-0.26-0.05-0.35-0.14s-0.14-0.21-0.14-0.35v-1.75c0-0.13,0.04-0.24,0.14-0.34
				s0.21-0.15,0.35-0.15h2.34c0.13,0,0.24,0.05,0.34,0.15c0.1,0.1,0.15,0.21,0.15,0.34v1.75c0,0.14-0.05,0.26-0.15,0.35
				c-0.1,0.09-0.21,0.14-0.34,0.14H201.68z M201.7,76.5c-0.14,0-0.26-0.05-0.35-0.15s-0.14-0.21-0.14-0.34v-9.17
				c0-0.14,0.04-0.26,0.14-0.35s0.21-0.14,0.35-0.14h2.3c0.14,0,0.26,0.05,0.35,0.14c0.09,0.09,0.14,0.21,0.14,0.35v9.17
				c0,0.13-0.04,0.24-0.14,0.34c-0.09,0.1-0.21,0.15-0.35,0.15H201.7z"/>
			<path class="st2" d="M209.23,76.5c-0.14,0-0.26-0.05-0.35-0.15s-0.14-0.21-0.14-0.34v-9.17c0-0.13,0.04-0.24,0.14-0.34
				s0.21-0.15,0.35-0.15h2.24c0.14,0,0.26,0.05,0.36,0.15c0.1,0.1,0.15,0.21,0.15,0.34v0.78c0.34-0.4,0.75-0.71,1.24-0.94
				c0.49-0.22,1.04-0.33,1.65-0.33h0.86c0.14,0,0.26,0.05,0.35,0.14s0.14,0.21,0.14,0.35v2.01c0,0.13-0.05,0.24-0.14,0.34
				s-0.21,0.15-0.35,0.15h-1.89c-0.53,0-0.95,0.15-1.24,0.44c-0.29,0.29-0.44,0.71-0.44,1.24v4.99c0,0.13-0.05,0.24-0.15,0.34
				c-0.1,0.1-0.22,0.15-0.36,0.15H209.23z"/>
			<path class="st2" d="M223.28,76.69c-0.74,0-1.4-0.17-1.98-0.51c-0.58-0.34-1.03-0.83-1.36-1.49c-0.33-0.66-0.49-1.46-0.49-2.41
				v-5.44c0-0.14,0.04-0.26,0.14-0.35s0.21-0.14,0.35-0.14h2.44c0.14,0,0.26,0.05,0.36,0.14c0.1,0.09,0.15,0.21,0.15,0.35v5.33
				c0,1.27,0.57,1.91,1.7,1.91c0.53,0,0.96-0.17,1.28-0.5c0.32-0.33,0.48-0.8,0.48-1.41v-5.33c0-0.14,0.04-0.26,0.14-0.35
				c0.09-0.09,0.21-0.14,0.35-0.14h2.44c0.14,0,0.26,0.05,0.35,0.14c0.09,0.09,0.14,0.21,0.14,0.35v9.17c0,0.13-0.05,0.24-0.14,0.34
				c-0.09,0.1-0.21,0.15-0.35,0.15H227c-0.13,0-0.24-0.05-0.34-0.15c-0.1-0.1-0.15-0.21-0.15-0.34v-0.74
				c-0.34,0.47-0.78,0.82-1.32,1.06C224.66,76.57,224.02,76.69,223.28,76.69z"/>
			<path class="st2" d="M238.18,76.69c-0.85,0-1.56-0.09-2.16-0.28s-1.07-0.42-1.44-0.69c-0.37-0.27-0.65-0.56-0.83-0.85
				c-0.18-0.29-0.28-0.55-0.29-0.77c-0.01-0.14,0.03-0.26,0.14-0.35c0.1-0.09,0.21-0.14,0.33-0.14h2.22c0.04,0,0.07,0.01,0.11,0.02
				c0.03,0.01,0.07,0.04,0.11,0.08c0.17,0.09,0.34,0.2,0.51,0.34s0.36,0.26,0.58,0.36c0.22,0.1,0.49,0.16,0.8,0.16
				c0.36,0,0.67-0.07,0.92-0.22s0.37-0.36,0.37-0.63c0-0.21-0.06-0.38-0.17-0.52s-0.35-0.27-0.71-0.4
				c-0.36-0.13-0.89-0.26-1.61-0.39c-0.68-0.16-1.27-0.36-1.78-0.61s-0.9-0.58-1.17-1c-0.27-0.41-0.41-0.91-0.41-1.49
				c0-0.52,0.17-1.02,0.51-1.5c0.34-0.48,0.83-0.87,1.48-1.18s1.46-0.46,2.42-0.46c0.74,0,1.39,0.09,1.95,0.26
				c0.56,0.18,1.03,0.4,1.4,0.67s0.66,0.55,0.86,0.84s0.3,0.55,0.31,0.78c0.01,0.13-0.03,0.24-0.12,0.34
				c-0.09,0.1-0.2,0.15-0.31,0.15h-2.03c-0.05,0-0.1-0.01-0.16-0.03s-0.1-0.04-0.14-0.07c-0.16-0.08-0.31-0.18-0.47-0.31
				c-0.16-0.13-0.34-0.25-0.55-0.35c-0.21-0.1-0.47-0.16-0.78-0.16c-0.35,0-0.62,0.08-0.82,0.23c-0.19,0.16-0.29,0.36-0.29,0.6
				c0,0.17,0.05,0.33,0.17,0.47c0.11,0.14,0.34,0.27,0.68,0.39c0.34,0.12,0.88,0.25,1.61,0.39c0.9,0.14,1.61,0.37,2.15,0.69
				s0.91,0.69,1.14,1.11c0.23,0.42,0.34,0.87,0.34,1.34c0,0.62-0.19,1.18-0.57,1.66c-0.38,0.48-0.93,0.85-1.65,1.12
				S239.24,76.69,238.18,76.69z"/>
		</g>
	</g>
</g>
</svg>
