<?xml version="1.0" encoding="utf-8"?>
<!-- Generator: Adobe Illustrator 25.1.0, SVG Export Plug-In . SVG Version: 6.00 Build 0)  -->
<svg version="1.1" id="Layer_1" xmlns="http://www.w3.org/2000/svg" xmlns:xlink="http://www.w3.org/1999/xlink" x="0px" y="0px"
	 viewBox="0 0 181.66 207.84" style="enable-background:new 0 0 181.66 207.84;" xml:space="preserve">
<style type="text/css">
	.st0{fill:#AEE5EC;}
	.st1{fill:#006A6B;}
	.st2{fill:#5ACCD1;}
	.st3{fill:#008385;}
	.st4{fill:#223663;}
</style>
<g>
	<g>
		<path class="st0" d="M155.38,61.72c-5.38,0.12-9.83,3.86-11.07,8.85l-8.37,0.21c-1.18-9.53-5.4-18.11-11.65-24.76l8.29-8.1
			c4.49,3,10.61,2.57,14.64-1.35c4.63-4.5,4.73-11.91,0.23-16.54c-4.5-4.63-11.91-4.73-16.54-0.23c-3.86,3.75-4.56,9.52-2.08,14.02
			l-8.58,8.39c-7.13-5.9-16.15-9.6-26.01-10.07v-9c5.29-1.12,9.26-5.81,9.26-11.44C103.49,5.24,98.26,0,91.8,0
			c-6.46,0-11.69,5.24-11.69,11.69c0,5.38,3.63,9.89,8.58,11.26v9.27c-10.29,0.78-19.6,5.09-26.71,11.72L51.69,33.19
			c3.05-4.47,2.66-10.62-1.24-14.68c-4.48-4.66-11.88-4.8-16.54-0.33s-4.8,11.88-0.33,16.54c3.72,3.87,9.46,4.62,13.97,2.19
			l10.59,11.07c-5.34,6.4-8.9,14.33-9.94,23.04l-6.03-0.75c-0.46-5.39-4.63-9.9-10.21-10.6c-6.41-0.8-12.25,3.76-13.05,10.17
			c-0.8,6.41,3.76,12.25,10.17,13.05c5.34,0.66,10.27-2.39,12.23-7.12l6.57,0.82c0.07,10.39,3.72,19.92,9.77,27.43l-9.97,9.42
			c-4.42-3.07-10.54-2.77-14.64,1.06c-4.72,4.41-4.98,11.81-0.58,16.53c4.41,4.72,11.81,4.98,16.53,0.58
			c3.94-3.68,4.76-9.44,2.36-13.99l10.05-9.49c7.16,6.9,16.63,11.4,27.14,12.24l-0.08,10.23c-5.3,1.08-9.31,5.74-9.35,11.36
			c-0.05,6.46,5.14,11.74,11.6,11.79c6.46,0.05,11.74-5.14,11.79-11.6c0.04-5.38-3.55-9.92-8.48-11.33l0.09-10.35
			c10.53-0.48,20.09-4.63,27.44-11.21l6.5,5.78c-2.68,4.7-1.81,10.78,2.39,14.52c4.83,4.29,12.22,3.86,16.51-0.97
			c4.29-4.83,3.86-12.22-0.97-16.51c-4.02-3.57-9.81-3.86-14.11-1.07l-6.42-5.71c6.73-7.75,10.82-17.86,10.83-28.93l7.98-0.2
			c1.25,5.25,6.02,9.1,11.63,8.98c6.46-0.14,11.58-5.49,11.43-11.95C167.19,66.69,161.84,61.57,155.38,61.72z"/>
		<g>
			<path class="st1" d="M31.39,64.26c3.87,0.48,6.62,4.01,6.14,7.88c-0.48,3.87-4.01,6.62-7.88,6.14c-3.87-0.48-6.62-4.01-6.14-7.88
				C23.99,66.53,27.52,63.78,31.39,64.26z"/>
		</g>
		<g>
			<path class="st1" d="M133.53,126.06c-2.92-2.59-3.18-7.06-0.59-9.97c2.59-2.92,7.06-3.18,9.97-0.58
				c2.92,2.59,3.18,7.06,0.59,9.97C140.91,128.39,136.44,128.65,133.53,126.06z"/>
		</g>
		<g>
			
				<ellipse transform="matrix(0.0137 -0.9999 0.9999 0.0137 108.975 166.8416)" class="st1" cx="139.06" cy="28.18" rx="7.06" ry="7.06"/>
		</g>
		<g>
			
				<ellipse transform="matrix(0.7071 -0.7071 0.7071 0.7071 -26.9686 87.457)" class="st2" cx="92.09" cy="76.28" rx="33.15" ry="33.15"/>
		</g>
		<g>
			
				<ellipse transform="matrix(0.7071 -0.7071 0.7071 0.7071 -26.9686 87.457)" class="st3" cx="92.09" cy="76.28" rx="21.95" ry="21.95"/>
		</g>
		<g>
			<circle class="st1" cx="92.09" cy="76.28" r="11.2"/>
		</g>
		<g>
			<path class="st1" d="M98.86,11.69c0,3.9-3.16,7.06-7.06,7.06c-3.9,0-7.06-3.16-7.06-7.06c0-3.9,3.16-7.06,7.06-7.06
				C95.7,4.63,98.86,7.79,98.86,11.69z"/>
		</g>
		<g>
			<path class="st1" d="M155.8,80.47c-3.9,0.09-7.13-3.01-7.22-6.91c-0.09-3.9,3.01-7.13,6.91-7.22c3.9-0.09,7.13,3.01,7.22,6.9
				C162.79,77.15,159.7,80.38,155.8,80.47z"/>
		</g>
		<g>
			<path class="st1" d="M83.75,141.97c0.03-3.9,3.22-7.04,7.12-7c3.9,0.03,7.04,3.22,7,7.12c-0.03,3.9-3.22,7.04-7.12,7
				C86.86,149.06,83.72,145.87,83.75,141.97z"/>
		</g>
		<g>
			<path class="st1" d="M36.21,117.87c2.85-2.66,7.32-2.5,9.98,0.35c2.66,2.85,2.5,7.32-0.35,9.98c-2.85,2.66-7.32,2.5-9.98-0.35
				C33.2,125,33.36,120.53,36.21,117.87z"/>
		</g>
		<g>
			<path class="st1" d="M47.11,21.73c2.7,2.81,2.61,7.28-0.2,9.99c-2.81,2.7-7.28,2.61-9.99-0.2c-2.7-2.81-2.61-7.28,0.2-9.99
				C39.93,18.82,44.4,18.91,47.11,21.73z"/>
		</g>
	</g>
	<g>
		<path class="st4" d="M10.53,190c-2.13,0-3.96-0.35-5.5-1.05c-1.54-0.7-2.73-1.73-3.58-3.09c-0.85-1.36-1.32-3.05-1.41-5.06
			C0.01,179.87,0,178.87,0,177.81c0-1.06,0.01-2.08,0.03-3.06c0.09-1.97,0.57-3.65,1.43-5.03c0.86-1.38,2.06-2.42,3.6-3.13
			c1.54-0.7,3.36-1.05,5.47-1.05c1.49,0,2.88,0.19,4.15,0.56c1.27,0.37,2.38,0.92,3.33,1.63c0.95,0.71,1.69,1.57,2.23,2.58
			c0.53,1.01,0.81,2.15,0.83,3.41c0.02,0.2-0.04,0.37-0.19,0.51c-0.15,0.14-0.32,0.2-0.53,0.2h-4.59c-0.29,0-0.52-0.06-0.68-0.19
			c-0.16-0.12-0.29-0.36-0.41-0.7c-0.32-1.2-0.83-2.02-1.55-2.46c-0.71-0.44-1.59-0.66-2.63-0.66c-1.25,0-2.23,0.35-2.96,1.04
			c-0.73,0.69-1.12,1.84-1.19,3.45c-0.07,1.86-0.07,3.76,0,5.71c0.07,1.61,0.46,2.76,1.19,3.45c0.72,0.69,1.71,1.04,2.96,1.04
			c1.04,0,1.92-0.23,2.65-0.68c0.72-0.45,1.23-1.27,1.53-2.45c0.09-0.34,0.22-0.57,0.39-0.7c0.17-0.12,0.4-0.19,0.7-0.19h4.59
			c0.2,0,0.38,0.07,0.53,0.2c0.15,0.14,0.21,0.31,0.19,0.51c-0.02,1.27-0.3,2.41-0.83,3.42c-0.53,1.01-1.27,1.87-2.23,2.58
			c-0.95,0.71-2.06,1.26-3.33,1.63C13.41,189.82,12.03,190,10.53,190z"/>
		<path class="st4" d="M37.75,190c-2.08,0-3.9-0.34-5.44-1.02c-1.54-0.68-2.74-1.7-3.6-3.07s-1.34-3.09-1.43-5.15
			c-0.02-0.97-0.03-1.95-0.03-2.94c0-0.98,0.01-1.96,0.03-2.94c0.09-2.04,0.57-3.75,1.44-5.15c0.87-1.39,2.08-2.44,3.64-3.14
			c1.55-0.7,3.35-1.05,5.39-1.05c2.06,0,3.86,0.35,5.4,1.05c1.54,0.7,2.75,1.75,3.64,3.14c0.88,1.39,1.36,3.11,1.43,5.15
			c0.04,0.97,0.07,1.95,0.07,2.94c0,0.99-0.02,1.97-0.07,2.94c-0.07,2.06-0.54,3.78-1.41,5.15s-2.08,2.39-3.62,3.07
			C41.64,189.66,39.83,190,37.75,190z M37.75,185.11c1.2,0,2.18-0.36,2.94-1.09c0.76-0.72,1.16-1.88,1.21-3.47
			c0.04-1,0.07-1.94,0.07-2.82c0-0.88-0.02-1.8-0.07-2.75c-0.05-1.06-0.24-1.93-0.59-2.6c-0.35-0.67-0.83-1.16-1.44-1.48
			c-0.61-0.32-1.31-0.48-2.11-0.48c-0.77,0-1.46,0.16-2.07,0.48c-0.61,0.32-1.1,0.81-1.46,1.48c-0.36,0.67-0.57,1.53-0.61,2.6
			c-0.02,0.95-0.03,1.87-0.03,2.75c0,0.88,0.01,1.82,0.03,2.82c0.07,1.59,0.48,2.74,1.24,3.47
			C35.6,184.75,36.57,185.11,37.75,185.11z"/>
		<path class="st4" d="M61.7,189.66c-0.39,0-0.69-0.1-0.92-0.31c-0.23-0.2-0.39-0.44-0.48-0.71l-6.93-21.74
			c-0.05-0.11-0.07-0.21-0.07-0.31c0-0.18,0.07-0.34,0.22-0.49c0.15-0.15,0.32-0.22,0.53-0.22h4.21c0.36,0,0.65,0.1,0.85,0.31
			c0.2,0.2,0.33,0.4,0.37,0.58l4.82,15.7l4.79-15.7c0.07-0.18,0.2-0.37,0.39-0.58c0.19-0.2,0.47-0.31,0.83-0.31h4.25
			c0.18,0,0.34,0.07,0.49,0.22c0.15,0.15,0.22,0.31,0.22,0.49c0,0.09-0.02,0.19-0.07,0.31l-6.93,21.74
			c-0.07,0.27-0.22,0.51-0.44,0.71c-0.23,0.2-0.54,0.31-0.95,0.31H61.7z"/>
		<path class="st4" d="M82.7,189.66c-0.25,0-0.45-0.08-0.61-0.25c-0.16-0.17-0.24-0.37-0.24-0.59v-22.08c0-0.25,0.08-0.45,0.24-0.61
			c0.16-0.16,0.36-0.24,0.61-0.24h4.55c0.25,0,0.46,0.08,0.63,0.24c0.17,0.16,0.25,0.36,0.25,0.61v22.08c0,0.23-0.08,0.42-0.25,0.59
			s-0.38,0.25-0.63,0.25H82.7z"/>
		<path class="st4" d="M97.1,189.66c-0.25,0-0.45-0.08-0.61-0.25c-0.16-0.17-0.24-0.37-0.24-0.59v-22.08c0-0.25,0.08-0.45,0.24-0.61
			c0.16-0.16,0.36-0.24,0.61-0.24h8.83c2.22,0,4.11,0.36,5.67,1.07c1.56,0.71,2.76,1.76,3.6,3.13c0.84,1.37,1.29,3.06,1.36,5.08
			c0.02,1,0.03,1.87,0.03,2.62c0,0.75-0.01,1.61-0.03,2.58c-0.09,2.11-0.54,3.85-1.34,5.23c-0.8,1.38-1.97,2.41-3.5,3.08
			c-1.53,0.67-3.4,1-5.62,1H97.1z M102.37,184.77h3.57c0.97,0,1.78-0.15,2.43-0.46c0.65-0.31,1.13-0.79,1.46-1.44
			s0.5-1.52,0.53-2.58c0.05-0.66,0.07-1.25,0.08-1.77c0.01-0.52,0.01-1.04,0-1.56c-0.01-0.52-0.04-1.1-0.08-1.73
			c-0.04-1.54-0.45-2.67-1.21-3.38c-0.76-0.71-1.88-1.07-3.38-1.07h-3.4V184.77z"/>
		<path class="st4" d="M125.38,181.92c-0.25,0-0.45-0.08-0.61-0.24c-0.16-0.16-0.24-0.36-0.24-0.61v-3.19
			c0-0.25,0.08-0.45,0.24-0.61c0.16-0.16,0.36-0.24,0.61-0.24h10.63c0.25,0,0.46,0.08,0.63,0.24c0.17,0.16,0.25,0.36,0.25,0.61v3.19
			c0,0.25-0.08,0.45-0.25,0.61c-0.17,0.16-0.38,0.24-0.63,0.24H125.38z"/>
		<path class="st4" d="M150.69,189.66c-0.23,0-0.42-0.08-0.59-0.25s-0.25-0.37-0.25-0.59v-16.17l-4.65,3.57
			c-0.2,0.16-0.41,0.22-0.63,0.17c-0.21-0.04-0.4-0.17-0.56-0.37l-2-2.62c-0.14-0.2-0.19-0.42-0.15-0.66s0.16-0.42,0.39-0.56
			l7.81-6.05c0.14-0.09,0.27-0.15,0.39-0.19c0.12-0.03,0.27-0.05,0.42-0.05h4.25c0.25,0,0.45,0.08,0.61,0.24
			c0.16,0.16,0.24,0.36,0.24,0.61v22.08c0,0.23-0.08,0.42-0.24,0.59s-0.36,0.25-0.61,0.25H150.69z"/>
		<path class="st4" d="M167.48,189.66c-0.2,0-0.37-0.07-0.51-0.22s-0.2-0.32-0.2-0.53c0-0.11,0.02-0.2,0.05-0.27
			c0.03-0.07,0.06-0.12,0.08-0.17l4.79-6.56c-0.32,0.07-0.65,0.1-0.99,0.1c-1.02-0.07-2.02-0.3-2.99-0.7s-1.85-0.94-2.63-1.63
			c-0.78-0.69-1.4-1.51-1.85-2.46c-0.45-0.95-0.68-2.02-0.68-3.19c0-1.09,0.2-2.13,0.61-3.14c0.41-1.01,1.02-1.91,1.83-2.72
			c0.82-0.8,1.83-1.44,3.04-1.92c1.21-0.48,2.62-0.71,4.23-0.71c1.63,0,3.06,0.21,4.3,0.63c1.23,0.42,2.27,1.01,3.11,1.77
			s1.47,1.64,1.9,2.65c0.43,1.01,0.65,2.08,0.65,3.21c0,1.04-0.19,2-0.56,2.89c-0.37,0.88-0.83,1.72-1.36,2.5s-1.08,1.57-1.65,2.36
			l-5.44,7.44c-0.09,0.11-0.23,0.25-0.41,0.42c-0.18,0.17-0.45,0.25-0.82,0.25H167.48z M172.34,177.53c0.68,0,1.29-0.14,1.83-0.42
			c0.54-0.28,0.97-0.68,1.29-1.21s0.48-1.16,0.48-1.9c0-0.75-0.16-1.39-0.48-1.92s-0.75-0.94-1.29-1.22
			c-0.54-0.28-1.16-0.42-1.83-0.42c-0.66,0-1.26,0.14-1.8,0.42c-0.54,0.28-0.97,0.69-1.29,1.22c-0.32,0.53-0.48,1.17-0.48,1.92
			c0,0.75,0.16,1.38,0.48,1.9c0.32,0.52,0.75,0.92,1.29,1.21C171.08,177.39,171.68,177.53,172.34,177.53z"/>
	</g>
	<g>
		<path class="st2" d="M31.91,208.24c-0.96,0-1.81-0.18-2.56-0.53c-0.74-0.35-1.33-0.86-1.77-1.53c-0.44-0.67-0.67-1.47-0.71-2.41
			c-0.01-0.21-0.02-0.47-0.02-0.79c0-0.32,0.01-0.58,0.02-0.79c0.04-0.95,0.27-1.76,0.7-2.43s1.02-1.18,1.77-1.53
			c0.75-0.35,1.6-0.53,2.56-0.53c0.9,0,1.67,0.13,2.31,0.38c0.64,0.25,1.16,0.57,1.56,0.95c0.4,0.38,0.7,0.76,0.9,1.16
			s0.31,0.74,0.32,1.04c0.01,0.13-0.03,0.24-0.14,0.34c-0.1,0.1-0.22,0.15-0.35,0.15h-2.48c-0.14,0-0.25-0.03-0.33-0.1
			c-0.08-0.06-0.15-0.16-0.21-0.29c-0.16-0.4-0.35-0.69-0.59-0.86c-0.24-0.17-0.55-0.25-0.93-0.25c-0.52,0-0.92,0.17-1.2,0.51
			c-0.28,0.34-0.43,0.86-0.46,1.56c-0.01,0.52-0.01,0.98,0,1.39c0.04,0.71,0.2,1.24,0.47,1.56s0.67,0.49,1.19,0.49
			c0.4,0,0.72-0.09,0.96-0.26c0.23-0.17,0.42-0.46,0.57-0.85c0.06-0.13,0.14-0.23,0.21-0.29c0.08-0.07,0.19-0.1,0.33-0.1h2.48
			c0.13,0,0.25,0.05,0.35,0.14c0.1,0.09,0.15,0.21,0.14,0.35c-0.01,0.21-0.08,0.46-0.19,0.76c-0.12,0.3-0.3,0.61-0.55,0.94
			s-0.57,0.62-0.97,0.9c-0.4,0.27-0.88,0.5-1.43,0.67S32.65,208.24,31.91,208.24z"/>
		<path class="st2" d="M45.51,208.24c-1.09,0-2.01-0.18-2.76-0.53c-0.75-0.35-1.32-0.85-1.72-1.51c-0.4-0.66-0.62-1.44-0.67-2.35
			c-0.01-0.26-0.02-0.56-0.02-0.89c0-0.33,0.01-0.62,0.02-0.87c0.05-0.92,0.29-1.71,0.7-2.36c0.42-0.65,1-1.15,1.75-1.5
			c0.75-0.35,1.65-0.53,2.7-0.53c1.07,0,1.97,0.18,2.72,0.53c0.75,0.35,1.33,0.85,1.75,1.5c0.42,0.65,0.65,1.44,0.7,2.36
			c0.01,0.25,0.02,0.54,0.02,0.87c0,0.33-0.01,0.63-0.02,0.89c-0.05,0.91-0.28,1.69-0.67,2.35c-0.4,0.66-0.97,1.16-1.72,1.51
			C47.54,208.06,46.61,208.24,45.51,208.24z M45.51,205.86c0.58,0,1.01-0.18,1.28-0.53c0.27-0.35,0.42-0.88,0.46-1.58
			c0.01-0.19,0.02-0.46,0.02-0.78c0-0.32-0.01-0.58-0.02-0.78c-0.04-0.69-0.19-1.21-0.46-1.57c-0.27-0.36-0.69-0.54-1.28-0.54
			c-0.56,0-0.98,0.18-1.26,0.54c-0.28,0.36-0.43,0.88-0.46,1.57c-0.01,0.2-0.02,0.46-0.02,0.78c0,0.33,0.01,0.59,0.02,0.78
			c0.03,0.7,0.18,1.23,0.46,1.58C44.53,205.68,44.95,205.86,45.51,205.86z"/>
		<path class="st2" d="M55.06,208.04c-0.14,0-0.26-0.05-0.35-0.15c-0.09-0.1-0.14-0.21-0.14-0.34v-9.17c0-0.13,0.05-0.24,0.14-0.34
			c0.09-0.1,0.21-0.15,0.35-0.15h2.24c0.14,0,0.26,0.05,0.36,0.15s0.15,0.21,0.15,0.34v0.78c0.34-0.4,0.75-0.71,1.24-0.94
			c0.49-0.22,1.04-0.33,1.65-0.33h0.86c0.14,0,0.26,0.05,0.35,0.14s0.14,0.21,0.14,0.35v2.01c0,0.13-0.05,0.24-0.14,0.34
			s-0.21,0.15-0.35,0.15h-1.89c-0.53,0-0.95,0.15-1.24,0.44c-0.29,0.29-0.44,0.71-0.44,1.24v4.99c0,0.13-0.05,0.24-0.15,0.34
			s-0.22,0.15-0.36,0.15H55.06z"/>
		<path class="st2" d="M70.1,208.24c-1.09,0-2.01-0.18-2.76-0.53c-0.75-0.35-1.32-0.85-1.72-1.51c-0.4-0.66-0.62-1.44-0.67-2.35
			c-0.01-0.26-0.02-0.56-0.02-0.89c0-0.33,0.01-0.62,0.02-0.87c0.05-0.92,0.29-1.71,0.7-2.36c0.42-0.65,1-1.15,1.75-1.5
			c0.75-0.35,1.65-0.53,2.7-0.53c1.07,0,1.97,0.18,2.72,0.53c0.75,0.35,1.33,0.85,1.75,1.5c0.42,0.65,0.65,1.44,0.7,2.36
			c0.01,0.25,0.02,0.54,0.02,0.87c0,0.33-0.01,0.63-0.02,0.89c-0.05,0.91-0.28,1.69-0.67,2.35c-0.4,0.66-0.97,1.16-1.72,1.51
			C72.14,208.06,71.21,208.24,70.1,208.24z M70.1,205.86c0.58,0,1.01-0.18,1.28-0.53c0.27-0.35,0.42-0.88,0.46-1.58
			c0.01-0.19,0.02-0.46,0.02-0.78c0-0.32-0.01-0.58-0.02-0.78c-0.04-0.69-0.19-1.21-0.46-1.57c-0.27-0.36-0.69-0.54-1.28-0.54
			c-0.56,0-0.98,0.18-1.26,0.54c-0.28,0.36-0.43,0.88-0.46,1.57c-0.01,0.2-0.02,0.46-0.02,0.78c0,0.33,0.01,0.59,0.02,0.78
			c0.03,0.7,0.18,1.23,0.46,1.58C69.12,205.68,69.54,205.86,70.1,205.86z"/>
		<path class="st2" d="M79.66,208.04c-0.14,0-0.26-0.05-0.35-0.15c-0.09-0.1-0.14-0.21-0.14-0.34v-9.17c0-0.14,0.05-0.26,0.14-0.35
			c0.09-0.09,0.21-0.14,0.35-0.14h2.24c0.14,0,0.26,0.05,0.36,0.14s0.15,0.21,0.15,0.35v0.74c0.32-0.4,0.76-0.74,1.31-1.01
			c0.55-0.27,1.19-0.41,1.93-0.41c0.75,0,1.42,0.17,2,0.51c0.58,0.34,1.03,0.83,1.37,1.48s0.5,1.46,0.5,2.42v5.44
			c0,0.13-0.05,0.24-0.14,0.34c-0.09,0.1-0.21,0.15-0.35,0.15h-2.46c-0.13,0-0.24-0.05-0.34-0.15s-0.15-0.21-0.15-0.34v-5.33
			c0-0.61-0.15-1.08-0.44-1.41c-0.29-0.33-0.73-0.5-1.3-0.5c-0.53,0-0.96,0.17-1.28,0.5c-0.32,0.33-0.48,0.8-0.48,1.41v5.33
			c0,0.13-0.05,0.24-0.15,0.34s-0.21,0.15-0.34,0.15H79.66z"/>
		<path class="st2" d="M96.71,208.24c-0.7,0-1.33-0.13-1.88-0.4s-0.99-0.63-1.32-1.08s-0.49-0.97-0.49-1.54
			c0-0.92,0.38-1.66,1.13-2.2c0.75-0.54,1.76-0.91,3-1.1l2.44-0.37v-0.27c0-0.47-0.1-0.83-0.29-1.07c-0.19-0.25-0.55-0.37-1.07-0.37
			c-0.36,0-0.66,0.07-0.89,0.21c-0.23,0.14-0.41,0.34-0.54,0.58c-0.12,0.17-0.28,0.25-0.49,0.25h-2.18c-0.14,0-0.25-0.04-0.33-0.13
			c-0.08-0.08-0.11-0.18-0.1-0.3c0-0.23,0.09-0.5,0.26-0.81c0.18-0.31,0.45-0.61,0.81-0.91s0.83-0.55,1.4-0.74s1.27-0.29,2.09-0.29
			c0.83,0,1.55,0.1,2.15,0.29c0.6,0.2,1.09,0.47,1.46,0.82c0.38,0.35,0.65,0.76,0.83,1.24s0.26,1,0.26,1.57v5.93
			c0,0.13-0.05,0.24-0.15,0.34s-0.21,0.15-0.34,0.15h-2.26c-0.14,0-0.26-0.05-0.35-0.15c-0.09-0.1-0.14-0.21-0.14-0.34v-0.68
			c-0.17,0.25-0.4,0.48-0.68,0.68c-0.29,0.21-0.62,0.37-1,0.5S97.22,208.24,96.71,208.24z M97.63,206.01c0.38,0,0.72-0.08,1.02-0.24
			c0.31-0.16,0.55-0.42,0.72-0.76s0.26-0.78,0.26-1.3v-0.27l-1.66,0.29c-0.61,0.1-1.06,0.26-1.34,0.48
			c-0.28,0.21-0.42,0.46-0.42,0.75c0,0.22,0.07,0.41,0.2,0.57s0.3,0.28,0.52,0.36C97.15,205.97,97.38,206.01,97.63,206.01z"/>
		<path class="st2" d="M110.44,208.04c-0.2,0-0.34-0.05-0.43-0.15s-0.17-0.21-0.23-0.34l-3.69-9.05c-0.03-0.05-0.04-0.11-0.04-0.18
			c0-0.12,0.04-0.22,0.13-0.3c0.08-0.08,0.19-0.13,0.32-0.13h2.2c0.17,0,0.3,0.05,0.39,0.14c0.09,0.09,0.15,0.18,0.17,0.27
			l2.21,5.99l2.22-5.99c0.03-0.09,0.08-0.18,0.18-0.27c0.09-0.09,0.22-0.14,0.39-0.14h2.2c0.12,0,0.22,0.04,0.31,0.13
			s0.14,0.19,0.14,0.3c0,0.07-0.01,0.12-0.04,0.18l-3.69,9.05c-0.05,0.13-0.13,0.24-0.22,0.34s-0.25,0.15-0.46,0.15H110.44z"/>
		<path class="st2" d="M120.86,196.44c-0.14,0-0.26-0.05-0.35-0.14s-0.14-0.21-0.14-0.35v-1.75c0-0.13,0.04-0.24,0.14-0.34
			s0.21-0.15,0.35-0.15h2.34c0.13,0,0.24,0.05,0.34,0.15c0.1,0.1,0.15,0.21,0.15,0.34v1.75c0,0.14-0.05,0.26-0.15,0.35
			c-0.1,0.09-0.21,0.14-0.34,0.14H120.86z M120.88,208.04c-0.14,0-0.26-0.05-0.35-0.15s-0.14-0.21-0.14-0.34v-9.17
			c0-0.14,0.04-0.26,0.14-0.35s0.21-0.14,0.35-0.14h2.3c0.14,0,0.26,0.05,0.35,0.14c0.09,0.09,0.14,0.21,0.14,0.35v9.17
			c0,0.13-0.04,0.24-0.14,0.34c-0.09,0.1-0.21,0.15-0.35,0.15H120.88z"/>
		<path class="st2" d="M128.41,208.04c-0.14,0-0.26-0.05-0.35-0.15s-0.14-0.21-0.14-0.34v-9.17c0-0.13,0.04-0.24,0.14-0.34
			s0.21-0.15,0.35-0.15h2.24c0.14,0,0.26,0.05,0.36,0.15c0.1,0.1,0.15,0.21,0.15,0.34v0.78c0.34-0.4,0.75-0.71,1.24-0.94
			c0.49-0.22,1.04-0.33,1.65-0.33h0.86c0.14,0,0.26,0.05,0.35,0.14s0.14,0.21,0.14,0.35v2.01c0,0.13-0.05,0.24-0.14,0.34
			s-0.21,0.15-0.35,0.15h-1.89c-0.53,0-0.95,0.15-1.24,0.44c-0.29,0.29-0.44,0.71-0.44,1.24v4.99c0,0.13-0.05,0.24-0.15,0.34
			c-0.1,0.1-0.22,0.15-0.36,0.15H128.41z"/>
		<path class="st2" d="M142.45,208.24c-0.74,0-1.4-0.17-1.98-0.51c-0.58-0.34-1.03-0.83-1.36-1.49c-0.33-0.66-0.49-1.46-0.49-2.41
			v-5.44c0-0.14,0.04-0.26,0.14-0.35s0.21-0.14,0.35-0.14h2.44c0.14,0,0.26,0.05,0.36,0.14c0.1,0.09,0.15,0.21,0.15,0.35v5.33
			c0,1.27,0.57,1.91,1.7,1.91c0.53,0,0.96-0.17,1.28-0.5c0.32-0.33,0.48-0.8,0.48-1.41v-5.33c0-0.14,0.04-0.26,0.14-0.35
			c0.09-0.09,0.21-0.14,0.35-0.14h2.44c0.14,0,0.26,0.05,0.35,0.14c0.09,0.09,0.14,0.21,0.14,0.35v9.17c0,0.13-0.05,0.24-0.14,0.34
			c-0.09,0.1-0.21,0.15-0.35,0.15h-2.26c-0.13,0-0.24-0.05-0.34-0.15c-0.1-0.1-0.15-0.21-0.15-0.34v-0.74
			c-0.34,0.47-0.78,0.82-1.32,1.06C143.84,208.12,143.2,208.24,142.45,208.24z"/>
		<path class="st2" d="M157.36,208.24c-0.85,0-1.56-0.09-2.16-0.28s-1.07-0.42-1.44-0.69c-0.37-0.27-0.65-0.56-0.83-0.85
			c-0.18-0.29-0.28-0.55-0.29-0.77c-0.01-0.14,0.03-0.26,0.14-0.35c0.1-0.09,0.21-0.14,0.33-0.14h2.22c0.04,0,0.07,0.01,0.11,0.02
			c0.03,0.01,0.07,0.04,0.11,0.08c0.17,0.09,0.34,0.2,0.51,0.34s0.36,0.26,0.58,0.36c0.22,0.1,0.49,0.16,0.8,0.16
			c0.36,0,0.67-0.07,0.92-0.22s0.37-0.36,0.37-0.63c0-0.21-0.06-0.38-0.17-0.52s-0.35-0.27-0.71-0.4c-0.36-0.13-0.89-0.26-1.61-0.39
			c-0.68-0.16-1.27-0.36-1.78-0.61s-0.9-0.58-1.17-1c-0.27-0.41-0.41-0.91-0.41-1.49c0-0.52,0.17-1.02,0.51-1.5
			c0.34-0.48,0.83-0.87,1.48-1.18s1.46-0.46,2.42-0.46c0.74,0,1.39,0.09,1.95,0.26c0.56,0.18,1.03,0.4,1.4,0.67s0.66,0.55,0.86,0.84
			s0.3,0.55,0.31,0.78c0.01,0.13-0.03,0.24-0.12,0.34c-0.09,0.1-0.2,0.15-0.31,0.15h-2.03c-0.05,0-0.1-0.01-0.16-0.03
			s-0.1-0.04-0.14-0.07c-0.16-0.08-0.31-0.18-0.47-0.31c-0.16-0.13-0.34-0.25-0.55-0.35c-0.21-0.1-0.47-0.16-0.78-0.16
			c-0.35,0-0.62,0.08-0.82,0.23c-0.19,0.16-0.29,0.36-0.29,0.6c0,0.17,0.05,0.33,0.17,0.47c0.11,0.14,0.34,0.27,0.68,0.39
			c0.34,0.12,0.88,0.25,1.61,0.39c0.9,0.14,1.61,0.37,2.15,0.69s0.91,0.69,1.14,1.11c0.23,0.42,0.34,0.87,0.34,1.34
			c0,0.62-0.19,1.18-0.57,1.66c-0.38,0.48-0.93,0.85-1.65,1.12S158.41,208.24,157.36,208.24z"/>
	</g>
</g>
</svg>
